<?xml version="1.0" encoding="utf-8"?>
<!-- Generator: Adobe Illustrator 23.0.1, SVG Export Plug-In . SVG Version: 6.00 Build 0)  -->
<svg version="1.1" id="Calque_1" xmlns="http://www.w3.org/2000/svg" xmlns:xlink="http://www.w3.org/1999/xlink" x="0px" y="0px"
	 viewBox="0 0 8 8" style="enable-background:new 0 0 8 8;" xml:space="preserve">
<style type="text/css">
	.st0{fill:#FBFF05;}
</style>
<path class="st0" d="M7.9,4L7.9,4L7.9,4C7.8,3.6,7.6,3.4,6.7,3.6C6.1,3.7,5.8,3.7,5.4,3.8V3.7C5.7,3.6,6,3.4,6.5,3
	C7.2,2.5,7.2,2.2,7,1.9l0,0l0,0l0,0l0,0l0,0l0,0C6.7,1.7,6.4,1.7,5.9,2.4C5.5,2.9,5.3,3.2,5.1,3.5c0,0,0,0-0.1,0
	c0.1-0.4,0.1-0.7,0.2-1.3C5.5,1.3,5.3,1.1,4.9,1l0,0l0,0l0,0l0,0l0,0l0,0C4.5,1.1,4.3,1.3,4.4,2.1C4.5,2.7,4.5,3,4.6,3.4H4.5
	c-0.1-0.2-0.3-0.5-0.6-1C3.4,1.7,3.1,1.7,2.8,1.9l0,0l0,0l0,0l0,0l0,0l0,0C2.5,2.2,2.6,2.5,3.3,3C3.8,3.4,4,3.6,4.4,3.7v0.1
	C4,3.7,3.6,3.7,3,3.6C2.2,3.4,1.9,3.6,1.9,4l0,0l0,0l0,0l0,0l0,0l0,0c0,0.4,0.3,0.6,1.1,0.4c0.6-0.1,1-0.1,1.3-0.2v0.1
	C4,4.4,3.8,4.6,3.3,5C2.6,5.5,2.5,5.8,2.8,6.1l0,0l0,0l0,0l0,0l0,0l0,0c0.3,0.2,0.6,0.2,1.1-0.5c0.4-0.5,0.6-0.8,0.7-1.1h0.1
	C4.6,4.9,4.6,5.2,4.4,5.9C4.3,6.7,4.5,6.9,4.9,7l0,0l0,0l0,0l0,0l0,0l0,0c0.4-0.1,0.6-0.3,0.4-1.1c-0.1-0.7-0.1-1-0.2-1.3h0.1
	c0.2,0.3,0.4,0.6,0.7,1.1C6.4,6.3,6.7,6.3,7,6.1l0,0l0,0l0,0l0,0l0,0l0,0C7.2,5.8,7.2,5.5,6.5,5C6,4.6,5.7,4.4,5.4,4.3
	c0,0,0,0,0-0.1c0.4,0.1,0.7,0.1,1.3,0.2C7.6,4.6,7.8,4.4,7.9,4L7.9,4L7.9,4L7.9,4L7.9,4z"/>
</svg>
