<?xml version="1.0" encoding="utf-8"?>
<!-- Generator: Adobe Illustrator 23.0.1, SVG Export Plug-In . SVG Version: 6.00 Build 0)  -->
<svg version="1.1" id="Calque_1" xmlns="http://www.w3.org/2000/svg" xmlns:xlink="http://www.w3.org/1999/xlink" x="0px" y="0px"
	 viewBox="0 0 8 8" style="enable-background:new 0 0 8 8;" xml:space="preserve">
<style type="text/css">
	.st0{fill:#FBFF05;}
</style>
<path class="st0" d="M0.1,4L0.1,4L0.1,4c0.1-0.4,0.3-0.6,1.1-0.4c0.6,0.1,0.9,0.1,1.3,0.2V3.7C2.3,3.6,2,3.4,1.5,3
	C0.8,2.5,0.8,2.2,1,1.9l0,0l0,0l0,0l0,0l0,0l0,0c0.3-0.2,0.6-0.2,1.1,0.5c0.4,0.5,0.6,0.8,0.7,1.1c0,0,0,0,0.1,0
	C2.8,3.1,2.8,2.8,2.7,2.1c-0.2-0.8,0-1,0.4-1.1l0,0l0,0l0,0l0,0l0,0l0,0c0.4,0.1,0.6,0.3,0.4,1.1c-0.1,0.7-0.1,1-0.2,1.3h0.1
	c0.2-0.3,0.4-0.6,0.7-1.1c0.5-0.7,0.8-0.7,1.1-0.5l0,0l0,0l0,0l0,0l0,0l0,0C5.5,2.2,5.4,2.5,4.7,3C4.2,3.4,4,3.6,3.6,3.7v0.1
	C4,3.7,4.4,3.7,5,3.6c0.8-0.2,1.1,0,1.1,0.4l0,0l0,0l0,0l0,0l0,0l0,0c0,0.4-0.3,0.6-1.1,0.4C4.4,4.3,4,4.3,3.7,4.2v0.1
	C4,4.4,4.2,4.6,4.7,5c0.7,0.5,0.7,0.8,0.5,1.1l0,0l0,0l0,0l0,0l0,0l0,0C4.9,6.3,4.6,6.3,4.1,5.6C3.8,5.1,3.6,4.8,3.4,4.5H3.3
	c0.1,0.4,0.1,0.7,0.2,1.3c0.2,0.9,0,1.1-0.4,1.2l0,0l0,0l0,0l0,0l0,0l0,0C2.7,6.9,2.5,6.7,2.7,5.9C2.8,5.3,2.8,5,2.9,4.6H2.8
	c-0.1,0.2-0.3,0.5-0.7,1C1.6,6.3,1.3,6.3,1,6.1l0,0l0,0l0,0l0,0l0,0l0,0C0.8,5.8,0.8,5.5,1.5,5C2,4.6,2.3,4.4,2.6,4.3c0,0,0,0,0-0.1
	C2.2,4.3,1.9,4.3,1.3,4.4C0.4,4.6,0.2,4.4,0.1,4L0.1,4L0.1,4L0.1,4L0.1,4z"/>
</svg>
